<svg xmlns="http://www.w3.org/2000/svg" width="240" height="80" viewBox="0 0 240 80">
    <defs>
        <linearGradient id="grad" x1="0" y1="0" x2="1" y2="1">
            <stop offset="0%" stop-color="#03C75A"/>
            <stop offset="100%" stop-color="#05D374"/>
        </linearGradient>
        <filter id="shadow" x="-20%" y="-20%" width="140%" height="140%">
            <feDropShadow dx="0" dy="4" stdDeviation="6" flood-color="#000" flood-opacity="0.1"/>
        </filter>
    </defs>

    <g filter="url(#shadow)">
        <path d="M20 20 H60 a12 12 0 0 1 12 12 V56 a12 12 0 0 1 -12 12 H40 l-8 8 V68 H20 a12 12 0 0 1 -12 -12 V32 a12 12 0 0 1 12 -12 Z" fill="url(#grad)" />
        <path d="M60 28 H96 a8 8 0 0 1 8 8 V56 a8 8 0 0 1 -8 8 H74 l-6 6 V64 H60 a8 8 0 0 1 -8 -8 V36 a8 8 0 0 1 8 -8 Z" fill="#FFFFFF" fill-opacity="0.8" />
    </g>
</svg>
